RobotoSerifDisplay-RegularWidth1750.ufo
<glyph name="six" format="2">
  <advance width="695"/>
  <unicode hex="0036"/>
  <outline>
    <contour>
      <point x="555" y="717" type="line"/>
      <point x="305" y="683"/>
      <point x="145" y="503"/>
      <point x="145" y="293" type="curve" smooth="yes"/>
      <point x="145" y="102"/>
      <point x="232" y="19"/>
      <point x="358" y="19" type="curve" smooth="yes"/>
      <point x="477" y="19"/>
      <point x="550" y="106"/>
      <point x="550" y="230" type="curve" smooth="yes"/>
      <point x="550" y="347"/>
      <point x="493" y="425"/>
      <point x="371" y="425" type="curve" smooth="yes"/>
      <point x="264" y="425"/>
      <point x="173" y="355"/>
      <point x="127" y="271" type="curve"/>
      <point x="128" y="279"/>
      <point x="116" y="288"/>
      <point x="113" y="293" type="curve"/>
      <point x="154" y="373"/>
      <point x="254" y="454"/>
      <point x="391" y="454" type="curve" smooth="yes"/>
      <point x="542" y="454"/>
      <point x="652" y="369"/>
      <point x="652" y="230" type="curve" smooth="yes"/>
      <point x="652" y="93"/>
      <point x="526" y="-10"/>
      <point x="358" y="-10" type="curve" smooth="yes"/>
      <point x="182" y="-10"/>
      <point x="46" y="94"/>
      <point x="46" y="293" type="curve" smooth="yes"/>
      <point x="46" y="511"/>
      <point x="249" y="702"/>
      <point x="549" y="740" type="curve"/>
    </contour>
  </outline>
</glyph>
<glyph name="D" format="2">
  <advance width="919"/>
  <unicode hex="0044"/>
  <outline>
    <contour>
      <point x="39" y="683" type="line"/>
      <point x="49" y="683" type="line" smooth="yes"/>
      <point x="102" y="683"/>
      <point x="148" y="677"/>
      <point x="148" y="649" type="curve" smooth="yes"/>
      <point x="148" y="61" type="line" smooth="yes"/>
      <point x="148" y="33"/>
      <point x="103" y="27"/>
      <point x="49" y="27" type="curve" smooth="yes"/>
      <point x="39" y="27" type="line"/>
      <point x="39" y="0" type="line"/>
      <point x="395" y="0" type="line" smooth="yes"/>
      <point x="682" y="0"/>
      <point x="872" y="141"/>
      <point x="872" y="357" type="curve" smooth="yes"/>
      <point x="872" y="574"/>
      <point x="682" y="710"/>
      <point x="395" y="710" type="curve" smooth="yes"/>
      <point x="39" y="710" type="line"/>
    </contour>
    <contour>
      <point x="394" y="679" type="line" smooth="yes"/>
      <point x="625" y="679"/>
      <point x="768" y="563"/>
      <point x="768" y="357" type="curve" smooth="yes"/>
      <point x="768" y="152"/>
      <point x="625" y="31"/>
      <point x="394" y="31" type="curve" smooth="yes"/>
      <point x="245" y="31" type="line"/>
      <point x="245" y="679" type="line"/>
    </contour>
  </outline>
</glyph>
<glyph name="L" format="2">
  <advance width="703"/>
  <unicode hex="004C"/>
  <outline>
    <contour>
      <point x="355" y="710" type="line"/>
      <point x="355" y="683" type="line"/>
      <point x="343" y="683" type="line" smooth="yes"/>
      <point x="295" y="683"/>
      <point x="245" y="680"/>
      <point x="245" y="670" type="curve" smooth="yes"/>
      <point x="245" y="31" type="line"/>
      <point x="439" y="31" type="line" smooth="yes"/>
      <point x="555" y="31"/>
      <point x="595" y="44"/>
      <point x="602" y="87" type="curve" smooth="yes"/>
      <point x="623" y="216" type="line"/>
      <point x="659" y="216" type="line"/>
      <point x="659" y="0" type="line"/>
      <point x="39" y="0" type="line"/>
      <point x="39" y="27" type="line"/>
      <point x="49" y="27" type="line" smooth="yes"/>
      <point x="103" y="27"/>
      <point x="148" y="33"/>
      <point x="148" y="61" type="curve" smooth="yes"/>
      <point x="148" y="649" type="line" smooth="yes"/>
      <point x="148" y="677"/>
      <point x="102" y="683"/>
      <point x="49" y="683" type="curve" smooth="yes"/>
      <point x="39" y="683" type="line"/>
      <point x="39" y="710" type="line"/>
    </contour>
  </outline>
</glyph>
<glyph name="N" format="2">
  <advance width="911"/>
  <unicode hex="004E"/>
  <outline>
    <contour>
      <point x="39" y="0" type="line"/>
      <point x="316" y="0" type="line"/>
      <point x="316" y="27" type="line"/>
      <point x="288" y="27" type="line" smooth="yes"/>
      <point x="235" y="27"/>
      <point x="191" y="33"/>
      <point x="191" y="57" type="curve" smooth="yes"/>
      <point x="191" y="690" type="line"/>
      <point x="171" y="694" type="line"/>
      <point x="695" y="0" type="line"/>
      <point x="772" y="0" type="line"/>
      <point x="772" y="625" type="line" smooth="yes"/>
      <point x="772" y="667"/>
      <point x="817" y="683"/>
      <point x="867" y="683" type="curve" smooth="yes"/>
      <point x="881" y="683" type="line"/>
      <point x="881" y="710" type="line"/>
      <point x="604" y="710" type="line"/>
      <point x="604" y="683" type="line"/>
      <point x="632" y="683" type="line" smooth="yes"/>
      <point x="685" y="683"/>
      <point x="729" y="677"/>
      <point x="729" y="653" type="curve"/>
      <point x="729" y="86" type="line"/>
      <point x="746" y="81" type="line"/>
      <point x="266" y="710" type="line"/>
      <point x="39" y="710" type="line"/>
      <point x="39" y="683" type="line"/>
      <point x="53" y="683" type="line" smooth="yes"/>
      <point x="100" y="683"/>
      <point x="148" y="677"/>
      <point x="148" y="649" type="curve" smooth="yes"/>
      <point x="148" y="85" type="line" smooth="yes"/>
      <point x="148" y="43"/>
      <point x="103" y="27"/>
      <point x="53" y="27" type="curve" smooth="yes"/>
      <point x="39" y="27" type="line"/>
    </contour>
  </outline>
</glyph>
<glyph name="Z" format="2">
  <advance width="756"/>
  <unicode hex="005A"/>
  <outline>
    <contour>
      <point x="101" y="31" type="line"/>
      <point x="131" y="16" type="line"/>
      <point x="693" y="670" type="line"/>
      <point x="693" y="710" type="line"/>
      <point x="77" y="710" type="line"/>
      <point x="77" y="535" type="line"/>
      <point x="111" y="535" type="line"/>
      <point x="131" y="627" type="line" smooth="yes"/>
      <point x="140" y="667"/>
      <point x="178" y="679"/>
      <point x="293" y="679" type="curve" smooth="yes"/>
      <point x="629" y="679" type="line"/>
      <point x="600" y="689" type="line"/>
      <point x="45" y="42" type="line"/>
      <point x="45" y="0" type="line"/>
      <point x="702" y="0" type="line"/>
      <point x="702" y="204" type="line"/>
      <point x="666" y="204" type="line"/>
      <point x="646" y="88" type="line" smooth="yes"/>
      <point x="638" y="43"/>
      <point x="600" y="31"/>
      <point x="484" y="31" type="curve" smooth="yes"/>
    </contour>
  </outline>
</glyph>
<glyph name="k" format="2">
  <advance width="725"/>
  <unicode hex="006B"/>
  <outline>
    <contour>
      <point x="719" y="0" type="line"/>
      <point x="719" y="27" type="line"/>
      <point x="717" y="27" type="line"/>
      <point x="693" y="27"/>
      <point x="649" y="37"/>
      <point x="621" y="62" type="curve" smooth="yes"/>
      <point x="328" y="321" type="line"/>
      <point x="319" y="289" type="line"/>
      <point x="539" y="448" type="line" smooth="yes"/>
      <point x="581" y="479"/>
      <point x="628" y="491"/>
      <point x="663" y="491" type="curve"/>
      <point x="664" y="491" type="line"/>
      <point x="664" y="518" type="line"/>
      <point x="418" y="518" type="line"/>
      <point x="418" y="491" type="line"/>
      <point x="431" y="491" type="line" smooth="yes"/>
      <point x="473" y="491"/>
      <point x="516" y="483"/>
      <point x="517" y="469" type="curve"/>
      <point x="258" y="280" type="line"/>
      <point x="258" y="275" type="line"/>
      <point x="523" y="38" type="line"/>
      <point x="523" y="31"/>
      <point x="471" y="27"/>
      <point x="444" y="27" type="curve" smooth="yes"/>
      <point x="442" y="27" type="line"/>
      <point x="442" y="0" type="line"/>
    </contour>
    <contour>
      <point x="227" y="750" type="line"/>
      <point x="33" y="750" type="line"/>
      <point x="33" y="724" type="line"/>
      <point x="49" y="722" type="line" smooth="yes"/>
      <point x="110" y="714"/>
      <point x="133" y="707"/>
      <point x="133" y="681" type="curve" smooth="yes"/>
      <point x="133" y="60" type="line" smooth="yes"/>
      <point x="133" y="33"/>
      <point x="91" y="27"/>
      <point x="35" y="27" type="curve" smooth="yes"/>
      <point x="34" y="27" type="line"/>
      <point x="34" y="0" type="line"/>
      <point x="320" y="0" type="line"/>
      <point x="320" y="27" type="line"/>
      <point x="320" y="27" type="line" smooth="yes"/>
      <point x="271" y="27"/>
      <point x="227" y="31"/>
      <point x="227" y="39" type="curve" smooth="yes"/>
    </contour>
  </outline>
</glyph>
<glyph name="p" format="2">
  <advance width="786"/>
  <unicode hex="0070"/>
  <outline>
    <contour>
      <point x="33" y="-223" type="line"/>
      <point x="335" y="-223" type="line"/>
      <point x="335" y="-196" type="line"/>
      <point x="314" y="-196" type="line" smooth="yes"/>
      <point x="282" y="-196"/>
      <point x="226" y="-193"/>
      <point x="226" y="-186" type="curve" smooth="yes"/>
      <point x="226" y="401" type="line"/>
      <point x="220" y="401" type="line"/>
      <point x="220" y="518" type="line"/>
      <point x="33" y="518" type="line"/>
      <point x="33" y="492" type="line"/>
      <point x="49" y="490" type="line" smooth="yes"/>
      <point x="109" y="482"/>
      <point x="132" y="475"/>
      <point x="132" y="449" type="curve" smooth="yes"/>
      <point x="132" y="-163" type="line" smooth="yes"/>
      <point x="132" y="-190"/>
      <point x="90" y="-196"/>
      <point x="34" y="-196" type="curve"/>
      <point x="33" y="-196" type="line"/>
    </contour>
    <contour>
      <point x="443" y="-10" type="curve" smooth="yes"/>
      <point x="621" y="-10"/>
      <point x="746" y="104"/>
      <point x="746" y="264" type="curve" smooth="yes"/>
      <point x="746" y="422"/>
      <point x="623" y="528"/>
      <point x="456" y="528" type="curve" smooth="yes"/>
      <point x="346" y="528"/>
      <point x="272" y="487"/>
      <point x="210" y="407" type="curve"/>
      <point x="210" y="364" type="line"/>
      <point x="265" y="446"/>
      <point x="336" y="495"/>
      <point x="442" y="495" type="curve" smooth="yes"/>
      <point x="574" y="495"/>
      <point x="646" y="404"/>
      <point x="646" y="264" type="curve" smooth="yes"/>
      <point x="646" y="119"/>
      <point x="572" y="23"/>
      <point x="431" y="23" type="curve" smooth="yes"/>
      <point x="336" y="23"/>
      <point x="264" y="62"/>
      <point x="210" y="143" type="curve"/>
      <point x="210" y="98" type="line"/>
      <point x="269" y="23"/>
      <point x="341" y="-10"/>
    </contour>
  </outline>
</glyph>
<glyph name="u" format="2">
  <advance width="734"/>
  <unicode hex="0075"/>
  <outline>
    <contour>
      <point x="208" y="518" type="line"/>
      <point x="14" y="518" type="line"/>
      <point x="14" y="491" type="line"/>
      <point x="25" y="490" type="line" smooth="yes"/>
      <point x="85" y="483"/>
      <point x="114" y="476"/>
      <point x="114" y="449" type="curve" smooth="yes"/>
      <point x="114" y="150" type="line" smooth="yes"/>
      <point x="114" y="43"/>
      <point x="187" y="-10"/>
      <point x="306" y="-10" type="curve" smooth="yes"/>
      <point x="410" y="-10"/>
      <point x="478" y="33"/>
      <point x="542" y="106" type="curve"/>
      <point x="542" y="149" type="line"/>
      <point x="480" y="70"/>
      <point x="413" y="23"/>
      <point x="328" y="23" type="curve" smooth="yes"/>
      <point x="245" y="23"/>
      <point x="208" y="59"/>
      <point x="208" y="151" type="curve" smooth="yes"/>
    </contour>
    <contour>
      <point x="620" y="518" type="line"/>
      <point x="411" y="518" type="line"/>
      <point x="411" y="491" type="line"/>
      <point x="431" y="490" type="line"/>
      <point x="494" y="487"/>
      <point x="526" y="476"/>
      <point x="526" y="449" type="curve" smooth="yes"/>
      <point x="526" y="112" type="line"/>
      <point x="532" y="110" type="line"/>
      <point x="532" y="0" type="line"/>
      <point x="721" y="0" type="line"/>
      <point x="721" y="27" type="line"/>
      <point x="717" y="27" type="line" smooth="yes"/>
      <point x="660" y="27"/>
      <point x="620" y="33"/>
      <point x="620" y="60" type="curve" smooth="yes"/>
    </contour>
  </outline>
</glyph>
<glyph name="y" format="2">
  <advance width="679"/>
  <unicode hex="0079"/>
  <outline>
    <contour>
      <point x="342" y="-29" type="line"/>
      <point x="378" y="31" type="line"/>
      <point x="391" y="53" type="line"/>
      <point x="172" y="482" type="line"/>
      <point x="172" y="489"/>
      <point x="229" y="491"/>
      <point x="273" y="491" type="curve" smooth="yes"/>
      <point x="275" y="491" type="line"/>
      <point x="275" y="518" type="line"/>
      <point x="9" y="518" type="line"/>
      <point x="9" y="491" type="line"/>
      <point x="11" y="491" type="line"/>
      <point x="51" y="491"/>
      <point x="75" y="488"/>
      <point x="89" y="461" type="curve" smooth="yes"/>
    </contour>
    <contour>
      <point x="112" y="-232" type="curve" smooth="yes"/>
      <point x="222" y="-232"/>
      <point x="300" y="-172"/>
      <point x="387" y="17" type="curve" smooth="yes"/>
      <point x="590" y="448" type="line" smooth="yes"/>
      <point x="604" y="479"/>
      <point x="631" y="491"/>
      <point x="670" y="491" type="curve"/>
      <point x="670" y="491" type="line"/>
      <point x="670" y="518" type="line"/>
      <point x="466" y="518" type="line"/>
      <point x="466" y="491" type="line"/>
      <point x="468" y="491" type="line" smooth="yes"/>
      <point x="511" y="491"/>
      <point x="561" y="481"/>
      <point x="561" y="466" type="curve"/>
      <point x="373" y="65" type="line"/>
      <point x="360" y="41" type="line"/>
      <point x="280" y="-135"/>
      <point x="213" y="-161"/>
      <point x="124" y="-161" type="curve" smooth="yes"/>
      <point x="69" y="-161"/>
      <point x="31" y="-143"/>
      <point x="23" y="-140" type="curve"/>
      <point x="23" y="-213" type="line"/>
      <point x="38" y="-222"/>
      <point x="70" y="-232"/>
    </contour>
  </outline>
</glyph>
<glyph name="braceleft" format="2">
  <advance width="387"/>
  <unicode hex="007B"/>
  <outline>
    <contour>
      <point x="287" y="229" type="curve" smooth="yes"/>
      <point x="287" y="264"/>
      <point x="252" y="278"/>
      <point x="112" y="300" type="curve"/>
      <point x="112" y="303" type="line"/>
      <point x="252" y="325"/>
      <point x="287" y="339"/>
      <point x="287" y="374" type="curve" smooth="yes"/>
      <point x="287" y="416"/>
      <point x="171" y="520"/>
      <point x="171" y="610" type="curve" smooth="yes"/>
      <point x="171" y="693"/>
      <point x="240" y="726"/>
      <point x="362" y="725" type="curve"/>
      <point x="355" y="749" type="line"/>
      <point x="220" y="751"/>
      <point x="93" y="722"/>
      <point x="93" y="610" type="curve" smooth="yes"/>
      <point x="93" y="527"/>
      <point x="198" y="420"/>
      <point x="246" y="350" type="curve"/>
      <point x="249" y="362" type="line"/>
      <point x="56" y="313" type="line"/>
      <point x="56" y="290" type="line"/>
      <point x="249" y="241" type="line"/>
      <point x="246" y="253" type="line"/>
      <point x="198" y="183"/>
      <point x="93" y="76"/>
      <point x="93" y="-7" type="curve" smooth="yes"/>
      <point x="93" y="-119"/>
      <point x="220" y="-148"/>
      <point x="355" y="-146" type="curve"/>
      <point x="362" y="-122" type="line"/>
      <point x="240" y="-123"/>
      <point x="171" y="-89"/>
      <point x="171" y="-7" type="curve" smooth="yes"/>
      <point x="171" y="83"/>
      <point x="287" y="187"/>
    </contour>
  </outline>
</glyph>
<glyph name="asciitilde" format="2">
  <advance width="649"/>
  <unicode hex="007E"/>
  <outline>
    <contour>
      <point x="423" y="269" type="curve" smooth="yes"/>
      <point x="513" y="269"/>
      <point x="551" y="325"/>
      <point x="579" y="396" type="curve"/>
      <point x="543" y="404" type="line"/>
      <point x="526" y="362"/>
      <point x="503" y="330"/>
      <point x="451" y="330" type="curve" smooth="yes"/>
      <point x="377" y="330"/>
      <point x="318" y="403"/>
      <point x="219" y="403" type="curve" smooth="yes"/>
      <point x="132" y="403"/>
      <point x="88" y="351"/>
      <point x="69" y="276" type="curve"/>
      <point x="106" y="269" type="line"/>
      <point x="118" y="314"/>
      <point x="142" y="342"/>
      <point x="191" y="342" type="curve" smooth="yes"/>
      <point x="260" y="342"/>
      <point x="330" y="269"/>
    </contour>
  </outline>
</glyph>
<glyph name="hbar" format="2">
  <advance width="770"/>
  <unicode hex="0127"/>
  <outline>
    <contour>
      <point x="750" y="0" type="line"/>
      <point x="750" y="29" type="line"/>
      <point x="748" y="29" type="line" smooth="yes"/>
      <point x="691" y="29"/>
      <point x="649" y="36"/>
      <point x="649" y="65" type="curve" smooth="yes"/>
      <point x="649" y="365" type="line" smooth="yes"/>
      <point x="649" y="473"/>
      <point x="576" y="526"/>
      <point x="456" y="526" type="curve" smooth="yes"/>
      <point x="336" y="526"/>
      <point x="262" y="471"/>
      <point x="188" y="376" type="curve"/>
      <point x="207" y="351" type="line"/>
      <point x="270" y="438"/>
      <point x="337" y="490"/>
      <point x="432" y="490" type="curve" smooth="yes"/>
      <point x="516" y="490"/>
      <point x="555" y="454"/>
      <point x="555" y="363" type="curve" smooth="yes"/>
      <point x="555" y="39" type="line" smooth="yes"/>
      <point x="555" y="32"/>
      <point x="499" y="29"/>
      <point x="464" y="29" type="curve" smooth="yes"/>
      <point x="463" y="29" type="line"/>
      <point x="463" y="0" type="line"/>
    </contour>
    <contour>
      <point x="138" y="747" type="line"/>
      <point x="138" y="65" type="line" smooth="yes"/>
      <point x="138" y="36"/>
      <point x="95" y="29"/>
      <point x="38" y="29" type="curve" smooth="yes"/>
      <point x="37" y="29" type="line"/>
      <point x="37" y="0" type="line"/>
      <point x="324" y="0" type="line"/>
      <point x="324" y="29" type="line"/>
      <point x="323" y="29" type="line" smooth="yes"/>
      <point x="280" y="29"/>
      <point x="232" y="33"/>
      <point x="232" y="39" type="curve"/>
      <point x="232" y="747" type="line"/>
    </contour>
    <contour>
      <point x="498" y="633" type="line"/>
      <point x="18" y="633" type="line"/>
      <point x="18" y="601" type="line"/>
      <point x="498" y="601" type="line"/>
    </contour>
  </outline>
</glyph>
<glyph name="oogonek" format="2">
  <advance width="730"/>
  <unicode hex="01EB"/>
  <outline>
    <contour>
      <point x="365" y="21" type="curve"/>
      <point x="222" y="21"/>
      <point x="143" y="117"/>
      <point x="143" y="257" type="curve" smooth="yes"/>
      <point x="143" y="397"/>
      <point x="222" y="494"/>
      <point x="365" y="494" type="curve" smooth="yes"/>
      <point x="508" y="494"/>
      <point x="587" y="397"/>
      <point x="587" y="257" type="curve" smooth="yes"/>
      <point x="587" y="117"/>
      <point x="508" y="21"/>
    </contour>
    <contour>
      <point x="431" y="-235" type="curve" smooth="yes"/>
      <point x="493" y="-235"/>
      <point x="529" y="-216"/>
      <point x="562" y="-188" type="curve"/>
      <point x="540" y="-169" type="line"/>
      <point x="516" y="-187"/>
      <point x="492" y="-202"/>
      <point x="457" y="-202" type="curve" smooth="yes"/>
      <point x="418" y="-202"/>
      <point x="390" y="-180"/>
      <point x="390" y="-138" type="curve" smooth="yes"/>
      <point x="390" y="-85"/>
      <point x="438" y="-37"/>
      <point x="555" y="34" type="curve" smooth="yes"/>
      <point x="637" y="85"/>
      <point x="686" y="162"/>
      <point x="686" y="257" type="curve" smooth="yes"/>
      <point x="686" y="415"/>
      <point x="551" y="526"/>
      <point x="365" y="526" type="curve" smooth="yes"/>
      <point x="180" y="526"/>
      <point x="44" y="415"/>
      <point x="44" y="257" type="curve" smooth="yes"/>
      <point x="44" y="99"/>
      <point x="180" y="-10"/>
      <point x="365" y="-10" type="curve"/>
      <point x="430" y="-10"/>
      <point x="483" y="7"/>
      <point x="532" y="33" type="curve"/>
      <point x="521" y="40" type="line"/>
      <point x="401" y="-22"/>
      <point x="299" y="-75"/>
      <point x="299" y="-144" type="curve" smooth="yes"/>
      <point x="299" y="-201"/>
      <point x="355" y="-235"/>
    </contour>
  </outline>
</glyph>
<glyph name="ogonek" format="2">
  <advance width="746"/>
  <unicode hex="02DB"/>
  <anchor x="448" y="13.0" name="_right"/>
  <outline>
    <contour>
      <point x="484" y="27" type="line"/>
      <point x="369" y="-27"/>
      <point x="273" y="-77"/>
      <point x="273" y="-144" type="curve" smooth="yes"/>
      <point x="273" y="-201"/>
      <point x="330" y="-235"/>
      <point x="405" y="-235" type="curve" smooth="yes"/>
      <point x="467" y="-235"/>
      <point x="504" y="-216"/>
      <point x="536" y="-188" type="curve"/>
      <point x="515" y="-169" type="line"/>
      <point x="492" y="-187"/>
      <point x="466" y="-202"/>
      <point x="431" y="-202" type="curve" smooth="yes"/>
      <point x="392" y="-202"/>
      <point x="364" y="-180"/>
      <point x="364" y="-138" type="curve" smooth="yes"/>
      <point x="364" y="-90"/>
      <point x="400" y="-44"/>
      <point x="505" y="13" type="curve"/>
    </contour>
  </outline>
</glyph>
<glyph name="trademark" format="2">
  <advance width="1045"/>
  <unicode hex="2122"/>
  <outline>
    <contour>
      <point x="73" y="710" type="line"/>
      <point x="73" y="619" type="line"/>
      <point x="100" y="619" type="line"/>
      <point x="107" y="667" type="line" smooth="yes"/>
      <point x="109" y="683"/>
      <point x="129" y="688"/>
      <point x="176" y="688" type="curve" smooth="yes"/>
      <point x="217" y="688" type="line"/>
      <point x="217" y="432" type="line" smooth="yes"/>
      <point x="217" y="419"/>
      <point x="198" y="415"/>
      <point x="172" y="415" type="curve" smooth="yes"/>
      <point x="159" y="415" type="line"/>
      <point x="159" y="395" type="line"/>
      <point x="341" y="395" type="line"/>
      <point x="341" y="415" type="line"/>
      <point x="328" y="415" type="line" smooth="yes"/>
      <point x="302" y="415"/>
      <point x="282" y="419"/>
      <point x="282" y="432" type="curve" smooth="yes"/>
      <point x="282" y="688" type="line"/>
      <point x="325" y="688" type="line" smooth="yes"/>
      <point x="372" y="688"/>
      <point x="391" y="683"/>
      <point x="393" y="667" type="curve" smooth="yes"/>
      <point x="400" y="619" type="line"/>
      <point x="427" y="619" type="line"/>
      <point x="427" y="710" type="line"/>
    </contour>
    <contour>
      <point x="477" y="395" type="line"/>
      <point x="605" y="395" type="line"/>
      <point x="605" y="415" type="line"/>
      <point x="602" y="415" type="line" smooth="yes"/>
      <point x="589" y="415"/>
      <point x="563" y="418"/>
      <point x="563" y="420" type="curve" smooth="yes"/>
      <point x="563" y="702" type="line"/>
      <point x="557" y="701" type="line"/>
      <point x="682" y="394" type="line"/>
      <point x="735" y="394" type="line"/>
      <point x="862" y="701" type="line"/>
      <point x="855" y="701" type="line"/>
      <point x="855" y="420" type="line" smooth="yes"/>
      <point x="855" y="418"/>
      <point x="833" y="415"/>
      <point x="819" y="415" type="curve" smooth="yes"/>
      <point x="815" y="415" type="line"/>
      <point x="815" y="395" type="line"/>
      <point x="974" y="395" type="line"/>
      <point x="974" y="415" type="line"/>
      <point x="966" y="415" type="line" smooth="yes"/>
      <point x="939" y="415"/>
      <point x="921" y="419"/>
      <point x="921" y="432" type="curve" smooth="yes"/>
      <point x="921" y="674" type="line" smooth="yes"/>
      <point x="921" y="688"/>
      <point x="939" y="690"/>
      <point x="966" y="690" type="curve" smooth="yes"/>
      <point x="974" y="690" type="line"/>
      <point x="974" y="710" type="line"/>
      <point x="830" y="710" type="line"/>
      <point x="717" y="435" type="line"/>
      <point x="725" y="434" type="line"/>
      <point x="622" y="710" type="line"/>
      <point x="477" y="710" type="line"/>
      <point x="477" y="690" type="line"/>
      <point x="485" y="690" type="line" smooth="yes"/>
      <point x="510" y="690"/>
      <point x="530" y="688"/>
      <point x="530" y="674" type="curve" smooth="yes"/>
      <point x="530" y="432" type="line" smooth="yes"/>
      <point x="530" y="419"/>
      <point x="510" y="415"/>
      <point x="485" y="415" type="curve"/>
      <point x="477" y="415" type="line"/>
    </contour>
  </outline>
</glyph>
<glyph name="uni25C3" format="2">
  <advance width="954"/>
  <unicode hex="25C3"/>
  <outline>
    <contour>
      <point x="884" y="-40" type="line"/>
      <point x="884" y="754" type="line"/>
      <point x="19" y="357" type="line"/>
    </contour>
    <contour>
      <point x="834" y="24" type="line"/>
      <point x="850" y="24" type="line"/>
      <point x="98" y="368" type="line"/>
      <point x="98" y="346" type="line"/>
      <point x="845" y="688" type="line"/>
      <point x="834" y="690" type="line"/>
    </contour>
  </outline>
</glyph>
<glyph name="acute.pl" format="2">
  <advance width="619"/>
  <anchor x="266" y="489.0" name="_top"/>
  <outline>
    <contour>
      <point x="249" y="691" type="curve" smooth="yes"/>
      <point x="243" y="589" type="line"/>
      <point x="243" y="576" type="line"/>
      <point x="266" y="576" type="line"/>
      <point x="324" y="669" type="line" smooth="yes"/>
      <point x="340" y="694"/>
      <point x="349" y="712"/>
      <point x="349" y="730" type="curve" smooth="yes"/>
      <point x="349" y="752"/>
      <point x="333" y="766"/>
      <point x="304" y="766" type="curve" smooth="yes"/>
      <point x="268" y="766"/>
      <point x="251" y="743"/>
    </contour>
  </outline>
</glyph>
<glyph name="f_i" format="2">
  <advance width="770"/>
  <outline>
    <contour>
      <point x="28" y="518" type="line"/>
      <point x="28" y="489" type="line"/>
      <point x="507" y="489" type="line"/>
      <point x="507" y="518" type="line"/>
    </contour>
    <contour>
      <point x="442" y="728" type="curve" smooth="yes"/>
      <point x="489" y="728"/>
      <point x="551" y="713"/>
      <point x="576" y="687" type="curve"/>
      <point x="555" y="718" type="line"/>
      <point x="555" y="629" type="line"/>
      <point x="639" y="629" type="line"/>
      <point x="639" y="715" type="line"/>
      <point x="614" y="731"/>
      <point x="540" y="758"/>
      <point x="441" y="758" type="curve" smooth="yes"/>
      <point x="262" y="758"/>
      <point x="152" y="693"/>
      <point x="152" y="537" type="curve" smooth="yes"/>
      <point x="152" y="61" type="line" smooth="yes"/>
      <point x="152" y="33"/>
      <point x="114" y="27"/>
      <point x="50" y="27" type="curve" smooth="yes"/>
      <point x="36" y="27" type="line"/>
      <point x="36" y="0" type="line"/>
      <point x="378" y="0" type="line"/>
      <point x="378" y="27" type="line"/>
      <point x="368" y="27" type="line" smooth="yes"/>
      <point x="299" y="27"/>
      <point x="246" y="30"/>
      <point x="246" y="48" type="curve" smooth="yes"/>
      <point x="246" y="536" type="line" smooth="yes"/>
      <point x="246" y="674"/>
      <point x="307" y="728"/>
    </contour>
    <contour>
      <point x="648" y="518" type="line"/>
      <point x="445" y="518" type="line"/>
      <point x="445" y="489" type="line"/>
      <point x="457" y="489" type="line" smooth="yes"/>
      <point x="519" y="489"/>
      <point x="555" y="476"/>
      <point x="555" y="450" type="curve" smooth="yes"/>
      <point x="555" y="60" type="line" smooth="yes"/>
      <point x="555" y="33"/>
      <point x="513" y="27"/>
      <point x="458" y="27" type="curve" smooth="yes"/>
      <point x="455" y="27" type="line"/>
      <point x="455" y="0" type="line"/>
      <point x="747" y="0" type="line"/>
      <point x="747" y="27" type="line"/>
      <point x="745" y="27" type="line" smooth="yes"/>
      <point x="689" y="27"/>
      <point x="648" y="33"/>
      <point x="648" y="60" type="curve" smooth="yes"/>
    </contour>
  </outline>
</glyph>
<glyph name="minus.sup" format="2">
  <advance width="493"/>
  <outline>
    <contour>
      <point x="436" y="580" type="line"/>
      <point x="58" y="580" type="line"/>
      <point x="58" y="555" type="line"/>
      <point x="436" y="555" type="line"/>
    </contour>
  </outline>
</glyph>
<glyph name="naira.proportional" format="2">
  <advance width="883"/>
  <outline>
    <contour>
      <point x="41" y="0" type="line"/>
      <point x="331" y="0" type="line"/>
      <point x="331" y="30" type="line"/>
      <point x="303" y="30" type="line" smooth="yes"/>
      <point x="249" y="30"/>
      <point x="203" y="36"/>
      <point x="203" y="60" type="curve" smooth="yes"/>
      <point x="203" y="698" type="line"/>
      <point x="183" y="694" type="line"/>
      <point x="655" y="0" type="line"/>
      <point x="738" y="0" type="line"/>
      <point x="738" y="621" type="line" smooth="yes"/>
      <point x="738" y="663"/>
      <point x="784" y="680"/>
      <point x="837" y="680" type="curve" smooth="yes"/>
      <point x="851" y="680" type="line"/>
      <point x="851" y="710" type="line"/>
      <point x="560" y="710" type="line"/>
      <point x="560" y="680" type="line"/>
      <point x="589" y="680" type="line" smooth="yes"/>
      <point x="643" y="680"/>
      <point x="689" y="674"/>
      <point x="689" y="650" type="curve" smooth="yes"/>
      <point x="689" y="74" type="line"/>
      <point x="708" y="77" type="line"/>
      <point x="278" y="710" type="line"/>
      <point x="41" y="710" type="line"/>
      <point x="41" y="680" type="line"/>
      <point x="55" y="680" type="line" smooth="yes"/>
      <point x="104" y="680"/>
      <point x="154" y="673"/>
      <point x="154" y="644" type="curve" smooth="yes"/>
      <point x="154" y="89" type="line" smooth="yes"/>
      <point x="154" y="47"/>
      <point x="107" y="30"/>
      <point x="55" y="30" type="curve" smooth="yes"/>
      <point x="41" y="30" type="line"/>
    </contour>
    <contour>
      <point x="39" y="448" type="line"/>
      <point x="39" y="417" type="line"/>
      <point x="168" y="417" type="line"/>
      <point x="170" y="448" type="line"/>
    </contour>
    <contour>
      <point x="438" y="417" type="line"/>
      <point x="701" y="417" type="line"/>
      <point x="718" y="417" type="line"/>
      <point x="853" y="417" type="line"/>
      <point x="853" y="448" type="line"/>
      <point x="431" y="448" type="line"/>
    </contour>
    <contour>
      <point x="712" y="257" type="line"/>
      <point x="853" y="257" type="line"/>
      <point x="853" y="288" type="line"/>
      <point x="713" y="288" type="line"/>
    </contour>
    <contour>
      <point x="39" y="288" type="line"/>
      <point x="39" y="257" type="line"/>
      <point x="533" y="257" type="line"/>
      <point x="503" y="288" type="line"/>
      <point x="184" y="288" type="line"/>
      <point x="165" y="288" type="line"/>
    </contour>
  </outline>
</glyph>
<glyph name="nine.den" format="2">
  <advance width="398"/>
  <outline>
    <contour>
      <point x="72" y="7" type="line"/>
      <point x="215" y="20"/>
      <point x="288" y="90"/>
      <point x="288" y="203" type="curve" smooth="yes"/>
      <point x="288" y="291"/>
      <point x="252" y="321"/>
      <point x="197" y="321" type="curve" smooth="yes"/>
      <point x="144" y="321"/>
      <point x="111" y="286"/>
      <point x="111" y="230" type="curve" smooth="yes"/>
      <point x="111" y="180"/>
      <point x="134" y="146"/>
      <point x="188" y="146" type="curve" smooth="yes"/>
      <point x="241" y="146"/>
      <point x="280" y="176"/>
      <point x="304" y="218" type="curve"/>
      <point x="312" y="198" type="line"/>
      <point x="294" y="161"/>
      <point x="246" y="120"/>
      <point x="173" y="120" type="curve" smooth="yes"/>
      <point x="88" y="120"/>
      <point x="28" y="161"/>
      <point x="28" y="228" type="curve" smooth="yes"/>
      <point x="28" y="298"/>
      <point x="99" y="347"/>
      <point x="196" y="347" type="curve" smooth="yes"/>
      <point x="298" y="347"/>
      <point x="370" y="300"/>
      <point x="370" y="202" type="curve" smooth="yes"/>
      <point x="370" y="92"/>
      <point x="265" y="-1"/>
      <point x="77" y="-17" type="curve"/>
    </contour>
  </outline>
</glyph>
<glyph name="tilde.uc" format="2">
  <advance width="619"/>
  <anchor x="310.0" y="694.0" name="_top"/>
  <outline>
    <contour>
      <point x="387" y="766" type="curve" smooth="yes"/>
      <point x="451" y="766"/>
      <point x="494" y="805"/>
      <point x="514" y="870" type="curve"/>
      <point x="480" y="880" type="line"/>
      <point x="466" y="842"/>
      <point x="447" y="820"/>
      <point x="414" y="820" type="curve" smooth="yes"/>
      <point x="351" y="820"/>
      <point x="311" y="883"/>
      <point x="228" y="883" type="curve" smooth="yes"/>
      <point x="161" y="883"/>
      <point x="123" y="847"/>
      <point x="106" y="779" type="curve"/>
      <point x="141" y="769" type="line"/>
      <point x="151" y="809"/>
      <point x="170" y="830"/>
      <point x="204" y="830" type="curve" smooth="yes"/>
      <point x="259" y="830"/>
      <point x="298" y="766"/>
    </contour>
  </outline>
</glyph>
